<svg width="182" height="146" viewBox="0 0 182 146" fill="none" xmlns="http://www.w3.org/2000/svg">
<mask id="path-1-outside-1_691_11356" maskUnits="userSpaceOnUse" x="0" y="0" width="182" height="146" fill="black">
<rect fill="white" width="182" height="146"/>
<path fill-rule="evenodd" clip-rule="evenodd" d="M99.4078 87.8389C95.0973 84.801 89.3568 84.7467 84.9896 87.7025L58.7962 105.43C50.2822 111.193 38.8093 104.965 39.0024 94.6864L39.8004 52.201C39.9944 41.8757 51.7857 36.0964 60.0655 42.2684L82.848 59.2512C87.2756 62.5517 93.3298 62.6086 97.8187 59.3919L122.932 41.3963C131.311 35.392 142.973 41.3586 143.006 51.6668L143.144 94.1616C143.177 104.462 131.57 110.506 123.15 104.572L99.4078 87.8389Z"/>
</mask>
<path fill-rule="evenodd" clip-rule="evenodd" d="M99.4078 87.8389C95.0973 84.801 89.3568 84.7467 84.9896 87.7025L58.7962 105.43C50.2822 111.193 38.8093 104.965 39.0024 94.6864L39.8004 52.201C39.9944 41.8757 51.7857 36.0964 60.0655 42.2684L82.848 59.2512C87.2756 62.5517 93.3298 62.6086 97.8187 59.3919L122.932 41.3963C131.311 35.392 142.973 41.3586 143.006 51.6668L143.144 94.1616C143.177 104.462 131.57 110.506 123.15 104.572L99.4078 87.8389Z" fill="#FEF9F9"/>
<path d="M143.144 94.1616L181.201 94.0384L143.144 94.1616ZM123.15 104.572L101.227 135.68L123.15 104.572ZM122.932 41.3963L100.764 10.4617L122.932 41.3963ZM143.006 51.6668L104.95 51.79L143.006 51.6668ZM97.8187 59.3919L75.6514 28.4573L97.8187 59.3919ZM99.4078 87.8389L77.4841 118.947L99.4078 87.8389ZM63.6586 56.1853L37.4652 73.9132L80.1272 136.947L106.321 119.22L63.6586 56.1853ZM77.0528 95.4011L77.8508 52.9157L1.75006 51.4863L0.952042 93.9717L77.0528 95.4011ZM37.3206 72.7809L60.103 89.7636L105.593 28.7388L82.8105 11.756L37.3206 72.7809ZM119.986 90.3266L145.099 72.3309L100.764 10.4617L75.6514 28.4573L119.986 90.3266ZM104.95 51.79L105.087 94.2848L181.201 94.0384L181.063 51.5436L104.95 51.79ZM145.074 73.4641L121.331 56.7311L77.4841 118.947L101.227 135.68L145.074 73.4641ZM105.087 94.2848C105.02 73.6843 128.235 61.5968 145.074 73.4641L101.227 135.68C134.904 159.414 181.334 135.239 181.201 94.0384L105.087 94.2848ZM145.099 72.3309C128.341 84.3395 105.016 72.4064 104.95 51.79L181.063 51.5436C180.93 10.3108 134.28 -13.5555 100.764 10.4617L145.099 72.3309ZM60.103 89.7636C77.8136 102.966 102.03 103.193 119.986 90.3266L75.6514 28.4573C84.6292 22.0239 96.7376 22.1377 105.593 28.7388L60.103 89.7636ZM77.8508 52.9157C77.4629 73.5664 53.8802 85.125 37.3206 72.7809L82.8105 11.756C49.6912 -12.9322 2.52583 10.185 1.75006 51.4863L77.8508 52.9157ZM37.4652 73.9132C54.4932 62.3886 77.4389 74.8435 77.0528 95.4011L0.952042 93.9717C0.17976 135.087 46.0713 159.997 80.1272 136.947L37.4652 73.9132ZM106.321 119.22C97.5861 125.131 86.1052 125.023 77.4841 118.947L121.331 56.7311C104.089 44.5795 81.1276 44.3622 63.6586 56.1853L106.321 119.22Z" fill="url(#paint0_radial_691_11356)" mask="url(#path-1-outside-1_691_11356)"/>
<defs>
<radialGradient id="paint0_radial_691_11356" cx="0" cy="0" r="1" gradientUnits="userSpaceOnUse" gradientTransform="translate(54.9485 46.1458) rotate(48.1156) scale(150.724 230.461)">
<stop stop-color="#35BEEA" stop-opacity="0.64"/>
<stop offset="1" stop-color="#D10EF1" stop-opacity="0.88"/>
</radialGradient>
</defs>
</svg>
